<?xml version="1.0" standalone="no"?>
<!DOCTYPE svg PUBLIC "-//W3C//DTD SVG 20010904//EN"
 "http://www.w3.org/TR/2001/REC-SVG-20010904/DTD/svg10.dtd">
<svg version="1.0" xmlns="http://www.w3.org/2000/svg"
 width="1536.000000pt" height="1063.000000pt" viewBox="0 0 1536.000000 1063.000000"
 preserveAspectRatio="xMidYMid meet">
<metadata>
Created by potrace 1.16, written by Peter Selinger 2001-2019
</metadata>
<g transform="translate(0.000000,1063.000000) scale(0.100000,-0.100000)"
fill="#000000" stroke="none">
<path d="M12370 10619 c-30 -5 -87 -24 -126 -43 -112 -53 -400 -238 -499 -321
-104 -86 -142 -107 -246 -134 -100 -26 -400 -54 -744 -71 -468 -23 -718 -60
-1555 -230 -633 -129 -662 -134 -731 -121 -32 5 -131 43 -224 85 -207 94 -260
110 -338 103 -77 -7 -175 -55 -213 -104 -15 -20 -54 -89 -86 -152 -32 -63 -70
-127 -85 -143 -31 -33 -91 -54 -193 -68 -41 -6 -217 -37 -390 -70 -173 -33
-407 -75 -520 -95 -113 -20 -320 -62 -460 -95 -323 -74 -400 -87 -640 -105
-316 -24 -370 -34 -471 -85 -96 -49 -387 -226 -431 -262 -25 -21 -73 -54 -105
-74 -52 -32 -63 -35 -110 -31 -28 3 -97 24 -152 46 -135 54 -183 61 -411 61
-113 0 -246 6 -315 15 -172 21 -273 19 -432 -10 -288 -53 -470 -109 -672 -206
-161 -77 -205 -111 -304 -239 -45 -57 -126 -156 -181 -220 -54 -63 -131 -164
-171 -225 -92 -139 -278 -472 -380 -680 -78 -159 -79 -161 -189 -271 -76 -76
-134 -124 -186 -154 -173 -99 -169 -94 -224 -301 -71 -270 -43 -367 199 -689
90 -119 165 -232 195 -290 28 -56 71 -180 62 -180 -4 0 -104 -1 -222 -4 -296
-5 -392 -32 -530 -146 -173 -144 -273 -372 -286 -650 -9 -167 7 -227 109 -430
61 -120 111 -241 182 -440 98 -276 184 -490 252 -623 115 -229 506 -813 771
-1152 114 -146 422 -522 481 -587 51 -58 153 -128 185 -128 12 0 62 20 111 45
141 72 179 76 599 73 351 -2 368 -1 634 30 297 35 398 52 499 83 73 23 114 21
183 -6 l45 -17 91 35 c73 29 117 39 232 51 206 23 338 20 563 -11 l194 -28
522 3 c463 3 529 2 585 -13 132 -35 137 -36 173 -21 19 8 59 38 88 65 85 80
109 86 337 84 107 -1 258 -8 335 -17 271 -30 402 -39 580 -40 200 -1 210 -4
289 -75 22 -21 142 -115 266 -210 124 -94 266 -205 315 -246 110 -91 164 -120
339 -185 167 -61 241 -80 326 -80 109 -1 178 -21 289 -84 130 -75 264 -133
365 -158 99 -25 213 -22 531 16 284 35 465 36 630 7 228 -41 787 -162 837
-181 27 -10 106 -55 174 -101 127 -83 203 -119 250 -119 73 0 144 77 144 157
0 52 -30 80 -144 132 -55 26 -109 60 -143 91 -61 55 -68 58 -308 110 -203 44
-306 79 -460 154 -143 70 -217 121 -240 166 -8 16 -15 54 -15 84 0 47 4 61 28
87 25 28 47 36 193 74 172 45 203 57 468 187 153 76 169 86 262 174 154 145
181 155 514 173 179 10 240 24 284 64 28 26 51 76 51 111 0 49 -41 136 -89
188 -44 48 -51 51 -103 56 -103 8 -197 -34 -314 -140 -80 -73 -84 -75 -215
-117 -140 -46 -209 -73 -475 -189 -314 -138 -407 -155 -1109 -201 -159 -11
-305 -17 -324 -14 -50 8 -149 81 -211 155 -114 135 -220 349 -220 443 0 28 7
91 15 140 8 50 24 169 35 265 26 222 45 341 65 408 9 29 13 62 10 73 -9 27
-52 46 -123 55 -130 14 -161 -27 -187 -253 -10 -85 -25 -148 -49 -215 -56
-153 -70 -188 -77 -188 -4 0 -46 53 -95 117 -172 230 -659 819 -784 948 -130
135 -132 146 -47 217 29 24 114 102 190 175 159 152 228 201 394 279 298 141
423 206 480 248 90 66 1051 984 1159 1107 114 130 160 186 256 320 180 248
230 280 526 334 192 35 1049 259 1306 341 131 42 296 108 396 159 165 83 466
279 646 420 149 117 463 405 570 523 49 53 152 162 230 242 77 80 153 164 167
187 14 23 75 138 135 255 142 280 202 456 202 602 0 90 -30 337 -42 353 -18
22 -430 327 -494 366 -34 20 -125 66 -203 101 -77 36 -197 101 -266 146 -154
100 -199 120 -343 160 -182 49 -231 81 -281 187 -18 37 -45 92 -59 121 -60
123 -361 346 -572 423 -44 16 -120 36 -168 45 -104 19 -481 28 -562 13z
m-4516 -6441 c-4 -7 -70 -78 -145 -158 -252 -266 -356 -397 -414 -523 -85
-184 -86 -347 -3 -511 38 -76 83 -141 193 -281 88 -113 113 -150 255 -390 45
-77 107 -169 137 -204 30 -35 65 -81 78 -101 34 -54 57 -140 53 -202 -3 -51
-4 -53 -38 -61 -80 -19 -329 -10 -571 22 -259 33 -363 52 -454 83 -33 11 -61
21 -63 22 -1 2 22 43 53 91 56 90 72 136 61 180 -8 32 -39 39 -112 26 -37 -7
-124 -9 -234 -5 -168 6 -179 5 -261 -20 -47 -14 -127 -43 -178 -65 -50 -23
-133 -52 -184 -67 -106 -30 -129 -42 -234 -130 -43 -36 -96 -73 -118 -84 -77
-37 -127 -40 -1245 -67 -122 -3 -278 -1 -360 6 -265 20 -726 95 -975 157 -157
40 -581 181 -644 214 -31 17 -90 59 -131 95 -41 36 -138 116 -216 179 -78 63
-161 138 -186 166 -39 44 -148 232 -148 254 0 4 46 -31 102 -77 243 -199 493
-369 672 -456 57 -28 260 -110 452 -182 434 -163 498 -185 595 -204 156 -29
862 -72 1429 -86 506 -12 456 -20 670 101 144 81 209 140 251 225 57 118 149
545 149 697 0 117 -45 298 -111 446 -17 37 -80 154 -141 260 -61 106 -109 194
-107 196 11 9 239 89 344 121 290 88 492 130 1205 250 614 104 584 100 574 83z"/>
</g>
</svg>
