<?xml version="1.0" standalone="no"?>
<!DOCTYPE svg PUBLIC "-//W3C//DTD SVG 20010904//EN"
 "http://www.w3.org/TR/2001/REC-SVG-20010904/DTD/svg10.dtd">
<svg version="1.0" xmlns="http://www.w3.org/2000/svg"
 width="1103.000000pt" height="1536.000000pt" viewBox="0 0 1103.000000 1536.000000"
 preserveAspectRatio="xMidYMid meet">
<metadata>
Created by potrace 1.16, written by Peter Selinger 2001-2019
</metadata>
<g transform="translate(0.000000,1536.000000) scale(0.100000,-0.100000)"
fill="#000000" stroke="none">
<path d="M2060 15354 c-19 -2 -78 -9 -130 -15 -329 -37 -606 -136 -876 -310
-416 -269 -816 -732 -975 -1128 -38 -95 -79 -254 -79 -308 0 -20 3 -21 26 -13
44 17 155 11 269 -16 492 -113 750 -142 1100 -123 243 13 316 6 411 -41 73
-36 143 -101 249 -233 49 -61 81 -94 85 -86 10 14 136 -111 207 -205 149 -199
245 -452 274 -716 20 -191 -3 -342 -106 -675 -148 -485 -155 -580 -69 -1005
41 -200 175 -697 365 -1349 112 -385 220 -633 413 -956 211 -351 388 -594 599
-823 272 -295 313 -342 439 -506 73 -94 170 -208 216 -254 92 -91 94 -96 50
-163 -34 -50 -93 -86 -278 -168 -192 -86 -334 -134 -443 -151 -98 -16 -306 -8
-537 20 -91 11 -417 38 -725 60 -826 59 -823 58 -957 81 -187 32 -257 18 -293
-58 -30 -62 -47 -207 -42 -343 8 -199 89 -485 149 -524 27 -17 724 -95 2013
-225 900 -91 1662 -149 2308 -176 65 -3 128 -10 140 -16 42 -22 220 -184 258
-234 69 -93 99 -233 119 -560 6 -99 21 -254 35 -345 57 -386 78 -596 95 -955
15 -303 29 -503 45 -640 8 -66 24 -223 35 -350 45 -491 86 -698 180 -900 40
-88 205 -340 304 -464 83 -105 199 -219 274 -268 93 -62 163 -86 252 -86 87 1
129 14 225 73 39 24 82 43 97 43 18 0 79 -34 178 -101 113 -76 170 -107 222
-123 170 -52 308 18 359 181 17 54 21 90 20 210 -1 226 -16 350 -121 975 -71
426 -176 1112 -230 1510 -24 179 -92 630 -124 823 -3 21 -1 23 23 18 82 -20
97 -19 113 5 8 13 21 41 29 62 7 20 15 37 19 37 3 0 17 -24 33 -53 34 -65 75
-116 127 -157 l40 -32 53 109 c51 105 52 110 51 193 -1 47 -11 137 -22 200
-41 223 -117 798 -108 808 3 2 250 0 548 -7 299 -6 613 -11 700 -11 244 0 257
-2 723 -139 187 -54 357 -104 378 -109 33 -9 41 -8 62 11 13 12 42 67 64 122
116 293 144 580 65 675 -31 36 -107 72 -199 94 -99 23 -379 65 -514 76 -127
11 -197 22 -319 51 -45 11 -402 55 -793 98 -391 44 -712 81 -715 83 -2 3 3 38
10 79 33 171 37 296 31 913 -7 776 5 682 -179 1416 -150 601 -181 719 -254
970 -39 135 -107 382 -152 550 -239 886 -423 1273 -858 1800 -160 193 -485
510 -667 651 -88 67 -168 132 -178 143 -30 35 -64 108 -113 242 -87 236 -203
440 -342 600 l-69 80 24 28 c30 35 25 53 -33 129 -44 57 -41 72 8 46 23 -12
27 -20 -50 96 -30 44 -88 141 -129 215 -198 352 -263 455 -355 562 l-48 57 27
3 c24 3 -9 30 -242 199 -148 108 -298 211 -332 228 -92 47 -180 75 -400 125
-360 82 -562 105 -756 84 -67 -7 -151 -13 -187 -12 -73 0 -112 17 -252 108
-147 95 -266 143 -428 172 -81 15 -386 27 -460 18z m2941 -9207 c57 -46 120
-104 140 -128 58 -72 58 -72 3 -66 -27 4 -111 12 -186 18 -86 8 -138 16 -138
23 -1 20 65 236 71 236 4 0 53 -38 110 -83z"/>
</g>
</svg>
