<?xml version="1.0" standalone="no"?>
<!DOCTYPE svg PUBLIC "-//W3C//DTD SVG 20010904//EN"
 "http://www.w3.org/TR/2001/REC-SVG-20010904/DTD/svg10.dtd">
<svg version="1.0" xmlns="http://www.w3.org/2000/svg"
 width="838.000000pt" height="1536.000000pt" viewBox="0 0 838.000000 1536.000000"
 preserveAspectRatio="xMidYMid meet">
<metadata>
Created by potrace 1.16, written by Peter Selinger 2001-2019
</metadata>
<g transform="translate(0.000000,1536.000000) scale(0.100000,-0.100000)"
fill="#000000" stroke="none">
<path d="M3997 15331 c-6 -28 -8 -29 -109 -44 -57 -9 -143 -21 -191 -28 -60
-8 -85 -15 -78 -22 9 -9 181 2 296 18 l30 5 -32 -15 c-17 -8 -118 -37 -225
-65 -106 -29 -263 -75 -348 -103 l-155 -52 68 -5 67 -5 -65 -34 c-45 -23 -83
-53 -121 -96 -33 -38 -82 -80 -124 -105 -44 -25 -70 -47 -70 -58 0 -10 -7 -28
-16 -40 -16 -23 -145 -124 -286 -224 -92 -66 -93 -74 -2 -23 34 19 65 35 68
35 3 0 -11 -16 -32 -35 l-37 -34 40 -1 40 0 -80 -80 c-76 -77 -78 -80 -41 -65
21 9 41 14 43 11 18 -18 -80 -146 -132 -174 -20 -10 -20 -11 1 -39 l21 -29
-23 -29 c-17 -22 -24 -43 -24 -76 0 -29 -6 -51 -15 -59 -22 -18 -18 -30 10
-30 29 0 31 -10 9 -72 -19 -57 -16 -143 6 -143 19 0 28 -27 29 -85 1 -25 4
-62 7 -83 6 -31 10 -36 25 -32 26 9 25 5 -22 -71 -38 -63 -39 -65 -12 -46 15
11 57 48 92 81 74 71 73 63 -7 -56 -32 -49 -69 -106 -82 -128 l-23 -40 53 50
c31 29 50 42 45 30 -4 -11 -10 -31 -13 -44 -7 -34 9 -21 73 59 57 71 121 128
132 116 13 -13 -20 -60 -82 -119 -45 -41 -69 -72 -77 -98 -6 -22 -9 -41 -6
-44 11 -11 39 8 53 36 14 26 17 27 47 18 18 -6 41 -13 50 -16 11 -3 35 12 71
46 48 45 135 96 146 86 2 -3 -22 -39 -54 -81 -32 -42 -51 -73 -44 -69 8 5 46
30 84 55 80 54 105 65 105 47 -1 -17 -30 -50 -68 -76 -18 -13 -31 -25 -28 -28
7 -8 125 78 165 121 19 20 39 36 43 36 4 0 8 -19 8 -42 l1 -43 27 31 c24 28
60 54 76 54 10 0 -16 -55 -36 -77 -12 -13 -17 -23 -11 -23 14 0 95 88 186 203
49 61 91 101 138 132 38 25 71 45 73 45 3 0 -10 -37 -29 -81 -40 -96 -21 -87
40 17 l39 67 9 -33 9 -34 17 40 c24 54 88 109 107 93 18 -15 18 -33 -2 -72
-18 -36 -14 -32 40 35 20 27 58 60 84 75 26 15 87 53 136 86 88 59 161 92 191
85 9 -2 -9 -19 -47 -45 -86 -59 -53 -54 76 12 99 51 112 55 174 54 l67 0 -32
-16 c-33 -17 -43 -33 -20 -33 6 0 57 7 112 15 55 8 119 15 143 15 61 0 180
-26 305 -67 100 -33 133 -53 88 -53 -10 0 -29 -9 -42 -20 l-24 -19 40 -1 c51
0 186 -47 245 -85 94 -59 201 -178 236 -260 l14 -34 -35 21 c-20 11 -38 18
-41 15 -3 -3 26 -40 65 -82 73 -78 95 -120 70 -135 -10 -7 -4 -27 28 -92 52
-103 63 -145 63 -231 0 -144 -49 -271 -186 -478 -67 -103 -206 -260 -219 -248
-13 14 24 76 83 141 63 70 89 108 74 108 -14 0 -68 -65 -147 -175 -79 -111
-185 -206 -185 -166 0 5 18 32 41 61 22 28 39 54 36 56 -2 2 -48 -36 -101 -85
-84 -77 -251 -201 -272 -201 -3 0 -4 11 -2 25 3 14 3 25 0 25 -3 0 -32 -17
-66 -38 -156 -99 -366 -197 -407 -190 -14 2 -4 13 43 46 80 54 61 54 -50 -2
-118 -59 -151 -68 -251 -71 -73 -2 -102 -8 -194 -43 -59 -23 -124 -44 -145
-47 l-37 -6 37 20 c20 12 40 26 44 32 10 18 -41 4 -266 -72 -113 -39 -230 -76
-260 -83 -146 -36 -198 -24 -57 14 74 20 137 45 137 54 0 9 -142 -28 -299 -79
-160 -51 -368 -102 -378 -92 -2 2 67 34 154 70 87 37 154 67 149 67 -25 1
-457 -149 -567 -196 -116 -50 -210 -84 -233 -84 -5 0 8 15 30 34 l39 35 -45
-10 c-64 -14 -172 -67 -339 -166 -126 -75 -239 -133 -258 -133 -16 0 28 34
127 100 61 40 108 75 105 78 -8 9 -144 -63 -270 -143 -138 -88 -233 -138 -290
-154 -50 -13 -169 -103 -352 -265 -132 -116 -142 -123 -145 -99 -3 21 -31 -11
-188 -213 -102 -131 -191 -245 -198 -253 -11 -14 -12 -11 -9 19 2 19 12 53 21
75 l17 40 -22 -25 c-36 -42 -95 -177 -160 -368 -34 -100 -65 -182 -70 -182 -4
0 -27 -31 -49 -70 -22 -38 -45 -70 -50 -70 -5 0 -10 19 -12 43 -3 40 -4 38
-21 -38 -28 -123 -30 -125 -52 -63 l-19 53 -7 -34 c-11 -55 -14 -229 -6 -451
l7 -205 -20 50 -20 50 4 -145 c6 -174 23 -266 81 -421 39 -105 69 -219 58
-219 -2 0 -14 5 -25 11 -25 13 -27 18 62 -116 37 -55 96 -136 131 -179 35 -44
82 -103 104 -131 22 -28 107 -118 188 -199 l149 -149 -12 -46 c-6 -25 -42
-125 -80 -221 -76 -197 -120 -344 -150 -505 -73 -399 -46 -864 75 -1284 80
-278 152 -415 466 -883 130 -194 278 -433 361 -583 143 -258 208 -384 223
-435 14 -45 20 -143 32 -515 15 -495 9 -874 -23 -1355 -35 -522 10 -624 348
-794 210 -105 249 -132 423 -292 224 -205 325 -274 405 -274 40 0 93 29 110
60 11 20 4 30 -68 103 -82 85 -124 147 -100 147 8 0 62 -27 122 -60 189 -105
365 -176 454 -182 l44 -2 31 59 c29 54 38 62 111 99 113 59 121 94 43 195 -42
55 -61 67 -159 98 -52 16 -68 29 -183 151 -69 74 -123 138 -119 143 3 5 25 9
49 9 24 0 81 9 126 20 l83 19 34 -21 c19 -11 82 -63 141 -115 123 -109 222
-164 306 -171 l53 -4 13 42 c10 31 10 49 2 71 -13 35 -16 34 87 13 95 -19 146
-9 184 37 14 17 26 34 26 39 0 5 3 15 6 23 4 11 -22 26 -98 57 -323 135 -392
173 -486 267 l-63 63 -252 -6 c-290 -7 -496 9 -580 46 -26 12 -47 24 -47 28 0
15 51 94 89 140 55 66 298 484 454 783 65 123 198 442 212 509 4 19 30 105 57
190 78 244 115 402 137 576 11 89 25 173 30 187 9 23 13 25 42 17 42 -12 71
-32 149 -101 164 -143 444 -286 635 -323 67 -13 338 -36 422 -36 l25 0 -7
-327 c-9 -446 -4 -468 185 -828 180 -342 431 -846 477 -959 53 -128 93 -279
93 -345 0 -25 -10 -66 -21 -91 -25 -52 -28 -130 -10 -207 13 -52 12 -54 -25
-135 -34 -71 -39 -90 -37 -146 1 -35 3 -66 5 -68 2 -2 23 -6 45 -10 38 -6 45
-3 71 22 19 20 34 51 46 98 21 87 47 136 86 170 58 48 68 38 156 -150 107
-230 171 -285 281 -239 33 14 35 18 30 49 -3 18 -39 105 -80 192 -41 88 -78
174 -82 193 l-7 34 53 -30 c39 -22 88 -69 179 -172 134 -153 193 -201 246
-201 66 0 76 88 19 166 -56 77 -95 137 -95 146 0 4 55 -19 121 -52 141 -70
185 -76 218 -34 13 16 21 41 21 64 0 36 -2 38 -67 68 -38 18 -95 55 -128 82
-78 66 -160 105 -265 125 -222 42 -270 67 -320 168 -56 116 -100 361 -135 752
-8 94 -32 274 -54 400 -77 451 -88 614 -50 727 33 94 99 223 221 425 60 100
114 196 120 213 12 37 56 63 81 49 27 -16 74 -91 96 -155 29 -87 39 -157 56
-384 17 -224 29 -328 80 -675 52 -354 59 -441 59 -710 0 -266 -8 -325 -55
-417 -32 -63 -115 -138 -211 -191 -48 -26 -90 -52 -93 -57 -10 -15 18 -49 54
-66 44 -21 95 -14 191 27 101 43 173 48 269 19 40 -12 125 -30 189 -41 63 -11
129 -27 146 -36 17 -9 64 -45 105 -80 l74 -65 71 4 c78 4 129 23 134 51 4 18
-19 43 -106 115 -29 24 -62 62 -73 84 l-21 41 44 -5 c77 -9 114 -34 178 -123
74 -103 105 -120 211 -120 62 0 81 4 98 19 12 11 19 26 16 34 -6 17 17 61 44
84 12 10 21 24 21 32 0 7 -84 82 -187 165 -212 171 -187 163 -314 105 -141
-63 -227 -43 -281 66 -72 146 -62 364 42 910 53 279 52 275 141 920 33 245 66
477 72 515 7 46 10 202 7 460 -8 797 -6 962 13 1055 40 187 144 397 251 506
l61 62 110 7 c200 12 276 35 337 103 80 89 80 246 -3 383 -43 71 -46 90 -25
140 17 42 38 205 30 239 -4 14 -17 60 -30 103 -33 106 -31 126 12 168 47 46
86 116 119 219 16 47 50 129 76 184 73 148 76 200 16 236 -94 58 -297 -22
-464 -183 l-63 -60 -57 7 c-32 3 -96 18 -143 32 -164 50 -310 44 -534 -22
-147 -43 -162 -42 -330 25 -150 60 -245 81 -369 81 -114 0 -157 -12 -157 -45
0 -13 5 -27 10 -30 18 -11 10 -23 -20 -30 -38 -8 -38 -16 0 -37 17 -9 30 -25
30 -34 0 -9 13 -40 30 -68 36 -65 47 -148 57 -437 l6 -206 -37 -41 c-21 -23
-63 -54 -94 -69 -53 -26 -66 -28 -172 -28 -103 1 -125 4 -209 33 -210 73 -375
175 -651 404 -446 369 -1260 816 -1805 991 -557 179 -1049 192 -1523 42 -144
-46 -194 -52 -264 -31 -147 42 -364 273 -472 499 -44 94 -97 247 -127 367 -18
74 -23 122 -23 220 1 152 24 233 108 380 62 109 72 139 56 169 -13 26 -2 51
48 103 l35 37 -38 -6 -38 -6 37 70 c21 39 47 80 59 91 32 30 283 179 323 192
45 15 43 28 -4 32 -35 3 -26 8 131 85 92 45 167 84 167 87 0 2 -53 -13 -117
-35 -64 -21 -120 -39 -123 -39 -3 0 16 14 41 30 54 36 256 111 371 140 133 32
225 69 231 91 4 13 14 19 34 19 50 0 126 28 178 65 86 62 236 96 505 115 80 5
195 18 255 27 110 16 155 32 99 34 -16 1 23 12 86 25 63 13 180 40 260 59 83
20 297 56 498 85 441 63 523 80 567 119 23 20 53 33 92 41 207 40 239 52 273
100 30 42 125 83 265 115 94 22 159 46 305 113 102 46 194 91 205 98 19 14 19
14 0 14 -20 1 -20 1 0 16 11 8 80 51 153 96 178 107 220 145 92 83 l-95 -46
70 68 c39 37 122 115 184 173 128 117 232 235 402 455 128 165 148 197 130
203 -19 6 -12 33 29 122 49 105 56 165 9 80 -31 -58 -68 -101 -56 -68 14 40
57 262 71 368 17 124 31 317 41 555 6 135 5 155 -13 200 -11 28 -29 100 -41
160 -38 194 -71 282 -84 228 -5 -21 -5 -19 -32 72 -19 64 -75 198 -81 192 -2
-2 9 -41 24 -88 16 -46 32 -97 36 -114 6 -29 6 -29 -10 -10 -9 11 -74 137
-146 280 -127 253 -197 376 -231 404 -22 18 -22 15 8 -43 14 -27 25 -55 25
-63 0 -23 -43 12 -80 65 -18 26 -61 76 -95 112 -34 36 -103 121 -153 190 -88
122 -176 219 -187 208 -3 -3 17 -35 45 -72 46 -61 76 -114 67 -122 -2 -2 -28
17 -58 43 -30 25 -88 72 -129 104 -41 31 -104 82 -139 112 -58 50 -121 94
-121 84 0 -2 29 -27 65 -57 36 -29 64 -55 61 -57 -11 -11 -137 58 -270 146
-76 50 -141 89 -144 86 -3 -3 9 -20 26 -38 57 -59 43 -60 -129 -12 -68 19
-162 40 -209 46 -47 6 -137 22 -200 35 -106 22 -137 24 -406 24 l-291 0 -6
-29z"/>
<path d="M3770 13458 c-25 -30 -32 -42 -16 -28 28 25 71 80 63 80 -2 0 -23
-24 -47 -52z"/>
</g>
</svg>
