<?xml version="1.0" standalone="no"?>
<!DOCTYPE svg PUBLIC "-//W3C//DTD SVG 20010904//EN"
 "http://www.w3.org/TR/2001/REC-SVG-20010904/DTD/svg10.dtd">
<svg version="1.0" xmlns="http://www.w3.org/2000/svg"
 width="1536.000000pt" height="1486.000000pt" viewBox="0 0 1536.000000 1486.000000"
 preserveAspectRatio="xMidYMid meet">
<metadata>
Created by potrace 1.16, written by Peter Selinger 2001-2019
</metadata>
<g transform="translate(0.000000,1486.000000) scale(0.100000,-0.100000)"
fill="#000000" stroke="none">
<path d="M2794 14815 c-38 -43 -43 -45 -95 -45 -30 0 -90 7 -134 16 -48 9
-101 13 -133 10 -67 -8 -368 -84 -404 -102 -14 -8 -57 -49 -95 -91 -110 -126
-216 -227 -258 -248 -31 -15 -71 -20 -175 -25 -74 -3 -141 -9 -148 -13 -7 -5
-28 -33 -47 -63 -19 -30 -61 -83 -93 -117 -32 -35 -73 -90 -91 -124 -31 -57
-38 -64 -98 -89 -78 -33 -103 -62 -103 -118 -1 -71 -28 -197 -47 -218 -10 -11
-38 -30 -63 -43 -25 -13 -54 -33 -65 -44 -16 -19 -17 -26 -8 -52 11 -28 10
-31 -15 -41 -123 -50 -172 -79 -225 -134 -31 -32 -64 -73 -74 -91 -19 -37 -27
-21 65 -134 40 -48 43 -57 38 -92 -8 -49 -34 -100 -106 -207 -32 -47 -88 -139
-126 -205 -38 -66 -84 -138 -104 -160 -66 -75 -65 -68 -26 -120 41 -53 41 -59
21 -202 -17 -121 -30 -155 -88 -231 -85 -111 -93 -143 -50 -223 25 -50 26 -54
14 -113 -12 -57 -12 -61 8 -77 12 -10 27 -19 33 -21 7 -3 -8 -41 -40 -103 -29
-54 -52 -99 -52 -100 0 -2 21 -8 46 -14 50 -13 51 -18 13 -92 -10 -20 -29 -62
-43 -92 l-24 -56 49 -16 c27 -9 49 -20 49 -25 0 -4 -13 -36 -30 -71 -16 -35
-32 -79 -36 -96 -6 -31 -4 -34 32 -49 22 -9 42 -21 45 -26 4 -6 5 -53 2 -106
-3 -88 -2 -101 21 -142 66 -121 63 -100 27 -175 -17 -37 -31 -71 -31 -76 0 -6
20 -18 44 -29 48 -20 50 -25 65 -118 5 -34 23 -90 38 -125 26 -58 28 -71 28
-188 l-1 -126 34 9 c52 15 78 3 122 -57 22 -30 48 -55 58 -55 10 0 34 11 54
25 20 14 42 25 47 25 6 0 20 -19 32 -42 12 -24 29 -53 37 -66 l15 -23 27 33
c26 31 28 32 66 20 22 -6 68 -32 102 -58 35 -26 64 -45 66 -43 1 2 13 37 26
76 29 93 37 99 96 79 26 -9 48 -15 50 -13 1 1 -2 58 -8 127 -8 90 -7 160 1
250 13 142 23 192 75 375 35 120 37 137 32 220 -21 329 -22 301 13 400 60 168
70 204 86 317 22 154 34 198 126 456 72 202 81 236 90 336 13 139 37 195 114
260 33 29 89 97 141 174 48 70 132 187 188 260 55 73 134 179 174 235 122 171
151 199 249 250 150 77 265 124 379 153 97 26 126 29 269 29 127 0 173 -4 220
-18 81 -25 270 -128 325 -178 53 -47 94 -70 192 -106 40 -14 84 -33 98 -41 60
-37 128 -118 226 -269 186 -288 218 -382 189 -558 -26 -166 -21 -195 44 -262
51 -52 54 -91 12 -195 -29 -73 -69 -238 -91 -376 -14 -84 -7 -126 41 -234 16
-36 29 -74 29 -84 0 -10 -21 -62 -46 -115 -35 -77 -50 -125 -69 -226 -14 -81
-36 -161 -59 -216 -43 -105 -52 -140 -66 -282 -6 -60 -18 -170 -27 -243 -17
-148 -15 -172 38 -366 37 -134 69 -319 69 -396 0 -58 -12 -88 -84 -213 -41
-69 -47 -203 -16 -342 32 -145 34 -169 16 -222 -20 -58 -20 -100 -1 -147 20
-47 109 -199 152 -257 48 -68 63 -119 63 -218 l0 -87 50 -79 c28 -44 53 -91
57 -104 3 -13 0 -55 -7 -93 -12 -67 -11 -70 16 -124 29 -57 126 -162 189 -205
19 -13 35 -27 35 -31 0 -4 -18 -17 -40 -29 l-39 -22 20 -26 c93 -119 95 -127
49 -183 -44 -53 -49 -90 -16 -129 34 -41 65 -101 106 -212 30 -81 39 -94 94
-140 109 -93 142 -131 156 -181 9 -33 23 -55 47 -73 45 -34 41 -55 -32 -175
-63 -104 -67 -133 -36 -234 11 -34 25 -97 31 -140 17 -110 6 -145 -75 -236
l-64 -73 51 -26 52 -27 -51 -28 -51 -29 44 -48 c25 -28 46 -63 50 -82 10 -54
-14 -144 -58 -217 -48 -80 -47 -91 16 -176 24 -33 52 -75 62 -93 26 -51 29
-146 9 -244 -18 -83 -18 -90 0 -183 9 -53 30 -133 46 -176 52 -144 39 -226
-59 -359 -52 -69 -83 -95 -190 -155 -277 -157 -580 -291 -962 -427 -102 -37
-239 -93 -306 -126 -151 -74 -220 -134 -266 -227 l-33 -67 0 -225 c0 -211 2
-233 29 -355 15 -71 39 -165 53 -208 23 -73 30 -85 121 -180 53 -56 153 -172
222 -257 69 -84 152 -185 185 -223 100 -115 97 -107 96 -276 -2 -163 4 -189
52 -239 36 -37 53 -39 132 -12 76 26 103 25 148 -6 21 -14 54 -26 75 -28 34
-2 40 -7 74 -65 20 -35 51 -79 67 -98 26 -30 36 -34 59 -28 147 36 178 204 77
422 -52 113 -147 269 -205 338 -57 68 -74 114 -64 182 11 86 -10 159 -72 251
-31 46 -77 100 -103 120 -98 79 -149 145 -172 221 -17 57 4 102 63 133 41 21
58 22 383 29 489 11 472 8 925 112 248 57 246 56 555 172 279 105 389 155 469
215 67 50 109 70 144 70 50 0 56 -19 64 -189 3 -86 10 -224 14 -307 9 -194 -4
-244 -106 -398 -198 -301 -299 -620 -269 -855 12 -97 52 -217 100 -296 76
-128 235 -248 395 -301 l85 -27 98 18 c126 23 164 18 286 -38 166 -76 242 -96
560 -146 165 -27 181 -26 210 3 64 65 36 147 -91 264 -87 79 -152 120 -239
148 -27 9 -96 38 -152 66 -68 33 -123 52 -166 58 -84 12 -95 17 -112 51 -41
78 -2 151 254 479 204 260 273 367 404 627 234 464 316 729 352 1133 9 96 29
249 46 340 41 218 42 323 4 439 -15 47 -28 107 -29 134 -1 43 3 52 32 78 28
25 40 29 90 29 76 -1 129 -26 205 -99 34 -32 112 -89 172 -126 61 -36 146 -90
191 -119 45 -29 145 -78 222 -110 78 -32 142 -63 142 -69 0 -20 -153 -304
-216 -399 -35 -54 -100 -136 -145 -183 l-82 -85 43 0 c42 0 42 0 27 -23 -15
-23 -146 -256 -204 -363 -20 -38 -44 -109 -64 -190 -16 -71 -50 -187 -74 -259
-23 -71 -57 -204 -74 -295 -53 -275 -71 -349 -122 -488 -62 -168 -72 -216 -67
-312 4 -62 12 -92 40 -153 48 -100 107 -185 161 -234 60 -52 219 -139 325
-177 161 -57 334 -38 541 60 82 38 102 44 160 44 41 -1 86 -8 121 -21 166 -62
164 -62 203 -45 32 13 37 20 37 47 0 77 -84 178 -194 233 -71 35 -188 47 -434
44 -231 -3 -249 1 -271 64 -25 71 -19 88 86 263 33 55 149 251 258 435 110
184 253 416 318 515 122 183 184 300 231 435 14 41 36 87 49 102 17 21 95 54
362 154 413 154 398 149 673 224 311 85 412 126 552 224 l65 45 41 -87 c23
-48 58 -107 79 -130 39 -45 57 -49 107 -28 22 10 59 -64 122 -244 59 -166 95
-229 256 -445 69 -93 182 -249 250 -345 372 -527 483 -648 907 -987 137 -108
280 -227 319 -264 39 -37 94 -79 122 -93 59 -30 173 -62 252 -71 58 -7 328 15
519 41 63 9 148 14 190 12 77 -5 82 -7 229 -83 l53 -28 67 15 c37 8 90 13 117
11 42 -3 57 1 93 25 l42 29 -76 103 c-152 207 -211 244 -404 260 -143 12 -226
4 -374 -34 -132 -35 -261 -36 -296 -4 -13 12 -65 110 -117 217 -115 240 -135
278 -291 566 -145 267 -187 354 -247 520 -57 159 -61 166 -114 258 -31 53 -68
98 -118 143 -40 36 -85 85 -99 109 -22 39 -25 51 -19 101 8 60 -9 578 -25 764
-9 107 -44 261 -101 453 -12 41 -19 88 -17 119 3 49 5 53 52 87 50 36 68 39
154 25 28 -4 64 0 107 11 117 32 192 9 377 -113 60 -40 130 -83 158 -97 110
-56 260 -70 393 -36 91 24 126 41 178 88 51 46 69 81 69 133 0 53 -18 95 -91
207 -86 133 -175 308 -194 383 -15 56 -16 91 -9 260 15 352 4 418 -90 531
-109 132 -250 235 -491 358 -88 45 -211 108 -273 140 -130 69 -171 78 -262 58
-202 -43 -345 -76 -605 -137 -385 -91 -543 -112 -664 -90 -76 14 -111 30 -240
115 -626 407 -627 408 -1043 762 -444 378 -487 409 -718 511 -74 33 -208 94
-297 136 -461 216 -645 275 -1308 421 -447 99 -558 116 -778 122 -316 9 -425
-16 -762 -175 -104 -49 -262 -115 -350 -147 -88 -31 -209 -81 -270 -111 -135
-66 -181 -71 -262 -24 -94 54 -193 221 -234 395 -90 384 -102 422 -185 610
l-49 110 -3 125 c-2 69 1 307 7 530 10 359 14 421 36 550 14 80 30 210 35 290
5 80 14 163 21 185 10 34 70 200 236 650 53 141 55 204 12 332 -30 90 -32 107
-31 209 2 84 9 136 28 210 47 176 54 217 60 324 6 98 4 114 -30 240 -19 74
-53 196 -76 270 -51 172 -65 240 -85 425 -21 197 -38 275 -92 420 -37 98 -46
136 -51 208 l-5 88 -44 -7 c-63 -9 -69 0 -78 116 -8 115 -20 132 -100 144 -51
8 -79 36 -89 90 -8 43 -25 57 -126 107 -113 55 -192 136 -284 292 -38 64 -73
117 -78 117 -5 0 -19 -7 -31 -15 -21 -14 -26 -13 -55 9 -37 27 -83 83 -119
144 -14 23 -27 42 -30 42 -3 0 -31 -23 -63 -50 l-58 -50 -73 96 c-83 110 -124
144 -217 176 -57 19 -84 23 -177 21 l-110 -2 -68 54 c-37 30 -82 57 -100 60
-22 4 -72 -6 -167 -35 -196 -61 -217 -61 -329 -12 -50 23 -117 46 -148 52 -31
5 -57 10 -57 10 -1 0 -19 -21 -42 -45z"/>
</g>
</svg>
