<?xml version="1.0" standalone="no"?>
<!DOCTYPE svg PUBLIC "-//W3C//DTD SVG 20010904//EN"
 "http://www.w3.org/TR/2001/REC-SVG-20010904/DTD/svg10.dtd">
<svg version="1.0" xmlns="http://www.w3.org/2000/svg"
 width="1536.000000pt" height="755.000000pt" viewBox="0 0 1536.000000 755.000000"
 preserveAspectRatio="xMidYMid meet">
<metadata>
Created by potrace 1.16, written by Peter Selinger 2001-2019
</metadata>
<g transform="translate(0.000000,755.000000) scale(0.100000,-0.100000)"
fill="#000000" stroke="none">
<path d="M7247 7512 c-35 -36 -47 -41 -113 -51 -68 -10 -77 -9 -119 11 l-45
22 -45 -23 c-58 -29 -110 -37 -130 -21 -14 11 -22 8 -53 -23 -36 -35 -41 -37
-105 -37 -46 0 -76 5 -93 16 -24 16 -26 16 -52 -9 -16 -15 -58 -35 -104 -48
l-78 -23 -34 33 -34 33 -16 -29 c-12 -24 -27 -33 -74 -47 -73 -20 -86 -20
-118 1 -16 10 -28 13 -32 6 -34 -50 -51 -61 -136 -83 l-89 -24 -19 27 -20 27
-28 -38 c-24 -33 -36 -40 -85 -50 -52 -11 -61 -10 -90 8 -41 25 -40 26 -55
-10 -20 -49 -67 -65 -101 -34 -16 14 -19 14 -34 -9 -9 -14 -52 -44 -95 -66
l-79 -40 -48 16 c-31 11 -74 40 -121 82 -95 86 -113 91 -369 91 -172 0 -226
-4 -355 -26 -84 -14 -263 -36 -398 -48 l-245 -23 -170 59 c-381 134 -505 139
-656 26 -41 -31 -117 -95 -169 -142 -70 -63 -107 -90 -139 -99 -30 -8 -53 -24
-74 -49 -26 -32 -37 -38 -100 -49 -62 -11 -71 -16 -80 -40 -10 -25 -17 -28
-81 -34 -64 -7 -73 -11 -117 -52 l-47 -44 -51 22 c-47 20 -53 20 -88 6 -35
-13 -42 -13 -108 10 -67 23 -71 23 -99 7 l-28 -16 -51 50 -50 50 -22 -26 -22
-25 -46 18 c-43 16 -50 16 -139 0 -98 -19 -116 -27 -172 -76 -30 -26 -34 -34
-26 -55 7 -17 6 -40 -1 -70 -10 -38 -9 -47 5 -63 9 -9 16 -33 16 -52 0 -32 3
-35 68 -65 62 -28 69 -34 80 -72 l13 -42 87 0 c93 0 175 -23 210 -58 10 -10
43 -24 75 -31 l57 -14 0 -44 c0 -24 -6 -54 -14 -66 -12 -19 -12 -28 -1 -60 7
-21 21 -48 32 -59 40 -45 161 -137 218 -165 83 -42 105 -82 105 -190 l0 -80
58 -12 c96 -22 363 -135 519 -222 146 -81 152 -83 508 -190 349 -106 639 -177
894 -219 134 -23 191 -46 316 -130 39 -26 80 -52 92 -59 42 -22 128 -33 240
-32 82 1 115 -2 125 -12 7 -8 29 -61 47 -118 18 -57 46 -145 63 -196 51 -160
42 -167 -154 -130 -79 15 -219 36 -313 47 -153 18 -190 19 -370 8 -149 -8
-272 -8 -485 1 l-285 11 -100 -28 c-138 -40 -257 -101 -290 -149 -14 -21 -25
-46 -25 -56 0 -13 -5 -17 -17 -13 -40 11 -237 38 -553 76 -735 90 -999 124
-1559 205 -321 47 -589 85 -596 85 -32 0 -103 -81 -133 -152 l-32 -73 18 -65
c16 -57 22 -66 48 -72 16 -5 283 -40 594 -78 823 -103 2118 -268 2245 -286 66
-9 222 -48 390 -96 l280 -80 290 -34 c271 -32 311 -34 612 -34 l321 0 534 -60
c293 -32 645 -69 782 -82 156 -14 254 -27 261 -35 7 -7 18 -50 25 -97 14 -99
31 -124 74 -105 14 7 28 20 31 31 8 23 22 23 35 -1 17 -33 71 -59 112 -54 35
5 39 9 48 47 22 87 30 112 44 131 14 19 24 18 707 -38 382 -31 750 -59 819
-62 69 -3 144 -8 168 -11 l42 -5 0 -85 c0 -115 20 -154 98 -192 48 -24 62 -27
85 -18 20 7 37 7 59 -2 42 -16 86 4 158 71 30 29 74 68 96 87 22 19 47 45 56
58 l16 23 318 -55 c501 -87 610 -104 744 -116 382 -34 981 -97 987 -104 2 -2
-1 -34 -8 -71 -15 -86 -6 -102 84 -162 l69 -46 50 12 c27 6 64 11 82 11 39 0
69 29 119 116 20 33 44 70 54 82 l18 23 125 -15 c69 -8 211 -29 315 -46 622
-101 1109 -175 1470 -224 226 -31 422 -59 436 -62 34 -7 129 -125 284 -354 65
-96 151 -218 191 -271 83 -109 177 -290 228 -439 36 -101 36 -103 36 -269 0
-193 -14 -255 -81 -351 -37 -52 -44 -58 -166 -111 -161 -71 -285 -96 -390 -80
-81 13 -173 58 -291 145 -74 53 -88 69 -119 130 -46 90 -63 212 -43 304 12 59
17 67 86 131 79 74 117 96 179 106 l40 6 -36 -14 c-58 -22 -135 -94 -179 -166
-37 -62 -40 -73 -40 -139 0 -80 15 -162 38 -207 8 -16 55 -70 104 -118 159
-157 276 -189 488 -131 98 26 217 81 258 118 32 29 82 136 99 215 21 99 28
277 13 342 -7 30 -35 96 -62 147 -43 80 -62 103 -132 163 -116 100 -211 146
-353 170 l-114 20 -112 -22 c-96 -19 -133 -33 -257 -95 l-146 -72 -77 -105
c-98 -134 -135 -232 -168 -447 l-23 -151 23 -87 c19 -72 38 -111 109 -225 75
-120 98 -148 167 -206 44 -37 107 -83 140 -101 33 -19 104 -60 158 -93 84 -50
114 -62 205 -82 229 -50 453 -39 618 31 69 30 93 47 167 122 47 48 127 139
176 202 82 104 99 134 178 310 l87 195 21 195 21 195 -57 220 c-47 184 -67
243 -124 365 -76 165 -125 252 -189 336 -24 33 -43 60 -41 62 1 2 56 -4 121
-12 148 -20 394 -22 394 -3 0 6 5 51 11 99 l10 86 -45 99 c-33 72 -51 100 -68
105 -13 5 -184 26 -382 47 -304 34 -360 43 -372 58 -82 108 -514 730 -629 908
-83 127 -195 294 -250 372 -127 181 -588 703 -835 948 -100 99 -245 252 -323
340 -238 272 -682 714 -837 834 -195 150 -665 461 -886 585 -108 61 -200 120
-214 137 -24 29 -29 30 -73 24 -41 -6 -51 -4 -82 19 -35 27 -272 132 -405 180
-40 15 -85 35 -100 46 -18 13 -44 20 -72 20 -35 0 -50 6 -69 26 -20 21 -30 25
-59 20 -53 -9 -178 29 -216 65 -29 28 -35 30 -81 23 -45 -5 -55 -3 -89 20 -22
15 -62 33 -91 42 -48 14 -54 14 -90 -4 -36 -18 -42 -18 -107 -4 -59 13 -69 19
-78 43 l-9 27 -59 -23 c-72 -28 -117 -22 -164 24 -30 29 -33 29 -80 19 -69
-15 -149 -2 -187 29 -30 25 -32 26 -59 10 -42 -25 -105 -22 -124 5 -15 22 -16
22 -69 5 -77 -24 -155 -23 -183 4 -20 19 -27 20 -55 10 -49 -17 -106 -14 -118
7 -9 16 -11 16 -43 0 -18 -10 -52 -20 -74 -24 -34 -5 -48 -2 -83 22 l-42 27
-37 -20 c-37 -20 -192 -41 -192 -25 0 4 -10 20 -23 35 l-22 28 -38 -39z
m-1658 -2968 c132 -28 290 -91 410 -163 55 -33 255 -115 521 -214 35 -13 83
-21 133 -22 76 -1 79 -3 98 -32 19 -30 19 -31 0 -75 -16 -37 -27 -48 -63 -62
-65 -26 -255 -133 -299 -168 -23 -18 -39 -40 -39 -52 0 -12 -4 -27 -9 -35 -11
-17 109 -23 -1451 79 -1074 70 -1380 96 -1415 119 -5 3 33 11 85 16 88 9 114
7 355 -29 l260 -38 410 0 c368 -1 422 2 530 20 66 11 148 23 182 27 55 6 64
10 92 45 18 23 36 60 42 90 12 57 7 468 -6 509 -7 22 -6 23 16 18 13 -3 80
-18 148 -33z m4895 -499 c99 -122 194 -217 286 -287 19 -14 90 -80 157 -146
86 -86 139 -130 182 -151 33 -17 62 -35 65 -39 3 -5 1 -24 -4 -43 -7 -24 -7
-41 1 -56 10 -18 8 -26 -10 -49 -11 -15 -21 -35 -21 -46 0 -16 -5 -19 -27 -14
-239 48 -617 105 -933 141 l-395 45 -105 54 c-67 35 -124 57 -157 61 -29 4
-53 12 -53 18 0 10 56 67 191 192 30 28 86 84 124 125 54 58 112 102 253 194
192 124 191 124 322 134 8 1 64 -59 124 -133z m-3184 45 c32 -16 61 -34 64
-39 13 -20 185 -49 326 -56 80 -3 242 -13 360 -21 234 -16 353 -12 495 16 l90
18 125 -24 c72 -14 185 -27 268 -31 78 -3 142 -9 142 -13 0 -4 -18 -29 -39
-56 -32 -40 -50 -53 -97 -68 -33 -11 -122 -44 -199 -74 -169 -65 -210 -98
-207 -162 2 -34 0 -40 -18 -40 -11 0 -250 18 -532 40 -282 22 -614 47 -738 55
-123 9 -226 18 -228 20 -3 2 8 18 22 36 57 67 76 121 86 246 5 65 10 133 10
151 0 17 2 32 5 32 3 0 32 -13 65 -30z m4210 -265 c94 -47 129 -53 205 -35 22
5 110 14 196 20 l156 11 114 -42 c95 -34 122 -49 164 -89 86 -82 129 -97 311
-111 l159 -12 117 -65 c64 -36 138 -84 164 -106 26 -23 98 -108 159 -191 62
-82 149 -192 194 -243 46 -52 81 -95 79 -97 -2 -2 -163 9 -358 25 -340 27
-360 30 -470 64 -92 29 -197 48 -520 96 -223 33 -418 63 -433 68 l-28 7 23 30
c22 28 23 38 23 180 0 149 0 150 -34 228 l-35 78 -126 79 c-99 62 -129 87
-143 115 -9 19 -14 35 -12 35 3 0 46 -20 95 -45z m2458 -2492 c-10 -2 -26 -2
-35 0 -10 3 -2 5 17 5 19 0 27 -2 18 -5z m196 -42 c75 -34 104 -72 147 -191
l27 -75 -20 -55 c-28 -75 -99 -157 -162 -186 -91 -43 -205 -22 -257 45 -13 17
-35 45 -48 62 -20 25 -23 37 -18 79 10 83 39 127 104 155 69 31 133 33 179 4
44 -27 43 -32 -1 -13 -50 21 -114 18 -165 -8 -51 -26 -76 -63 -85 -128 -6 -42
-3 -49 39 -106 39 -52 52 -62 99 -77 30 -9 69 -17 87 -17 71 0 175 94 201 181
10 31 8 52 -11 130 -22 87 -27 97 -74 143 -28 27 -68 57 -91 67 -22 10 -34 19
-27 19 7 0 41 -13 76 -29z m-102 -315 l-4 -39 39 6 38 6 -24 -19 c-48 -40
-121 -10 -121 50 0 31 12 40 50 37 23 -2 25 -6 22 -41z"/>
</g>
</svg>
