<?xml version="1.0" standalone="no"?>
<!DOCTYPE svg PUBLIC "-//W3C//DTD SVG 20010904//EN"
 "http://www.w3.org/TR/2001/REC-SVG-20010904/DTD/svg10.dtd">
<svg version="1.0" xmlns="http://www.w3.org/2000/svg"
 width="1536.000000pt" height="698.000000pt" viewBox="0 0 1536.000000 698.000000"
 preserveAspectRatio="xMidYMid meet">
<metadata>
Created by potrace 1.16, written by Peter Selinger 2001-2019
</metadata>
<g transform="translate(0.000000,698.000000) scale(0.100000,-0.100000)"
fill="#000000" stroke="none">
<path d="M4070 6973 c0 -5 7 -29 14 -55 8 -25 14 -79 14 -120 0 -40 9 -123 21
-184 16 -80 21 -139 19 -215 l-3 -104 -175 -6 c-96 -4 -238 -16 -315 -28 -174
-27 -546 -89 -600 -101 -101 -22 -466 -60 -581 -60 -109 0 -132 -7 -161 -51
-52 -78 -142 -118 -643 -284 -371 -123 -414 -139 -426 -165 -5 -10 -56 -53
-114 -96 -259 -191 -472 -383 -717 -646 -240 -257 -403 -491 -403 -580 0 -37
19 -76 41 -83 10 -4 101 18 201 49 362 108 362 108 533 22 207 -105 345 -210
463 -354 24 -29 61 -61 82 -72 36 -18 43 -19 112 -6 221 42 375 41 611 -4 257
-50 664 -226 882 -383 118 -84 189 -152 332 -315 76 -86 183 -207 238 -267 55
-61 119 -132 142 -158 23 -26 47 -47 53 -47 5 0 44 27 85 59 65 52 384 240
535 316 188 95 367 113 680 69 198 -28 426 -121 712 -291 146 -87 260 -184
424 -359 163 -175 335 -421 581 -834 155 -260 203 -350 268 -508 24 -59 76
-179 115 -267 39 -88 77 -183 85 -212 21 -81 29 -266 15 -358 -15 -97 -15
-132 1 -151 9 -11 49 -21 49 -11 0 1 7 20 15 42 l14 40 -5 -70 c-7 -92 7 -119
59 -121 27 0 42 5 49 16 7 11 19 15 34 12 21 -4 24 0 24 23 0 27 1 27 19 11
11 -10 28 -16 38 -14 16 3 18 13 15 77 -2 42 2 87 9 102 9 24 8 44 -10 116
-29 120 -83 432 -76 443 25 40 485 40 510 0 6 -10 -46 -315 -76 -443 -17 -71
-19 -93 -9 -116 6 -15 10 -61 8 -102 -3 -64 -1 -74 15 -77 10 -2 27 4 38 14
18 16 19 16 19 -10 0 -23 4 -27 23 -24 12 2 27 -3 33 -12 7 -8 28 -15 48 -16
53 -1 71 35 62 125 l-6 66 15 -40 c8 -22 15 -41 15 -42 0 -2 8 -3 19 -3 44 0
51 40 31 159 -15 90 -6 298 17 374 8 28 46 121 85 207 38 85 89 203 113 262
24 58 63 144 86 190 102 203 434 736 597 958 73 99 254 292 370 395 105 93
276 199 482 299 231 113 394 155 665 171 175 11 321 -17 465 -90 145 -72 482
-271 543 -320 37 -30 72 -55 78 -55 5 0 29 21 52 47 23 26 87 97 142 158 55
60 163 182 240 269 214 244 347 348 620 481 177 86 292 132 447 179 231 69
504 88 718 48 101 -19 107 -19 146 -2 24 10 58 39 85 71 118 144 257 250 466
356 168 85 169 85 531 -23 100 -31 191 -53 201 -49 22 7 41 46 41 83 0 40 -41
120 -119 235 -103 151 -206 270 -428 492 -222 223 -310 300 -528 465 -82 62
-154 121 -159 131 -12 25 -58 42 -426 164 -500 166 -591 206 -643 284 -29 44
-52 51 -158 51 -143 0 -450 35 -664 75 -129 24 -265 47 -525 87 -74 11 -214
23 -310 27 l-175 6 -3 109 c-2 81 3 136 19 215 12 58 21 138 21 178 -1 40 5
94 13 120 18 60 18 63 1 63 -25 0 -54 -49 -66 -108 -7 -31 -21 -88 -32 -127
-11 -38 -18 -84 -15 -101 4 -22 -8 -70 -37 -154 l-43 -122 -149 -80 c-82 -44
-228 -117 -324 -162 -96 -45 -248 -123 -336 -173 -224 -127 -416 -191 -819
-272 -203 -41 -296 -49 -675 -60 l-325 -10 -50 47 c-27 26 -63 57 -80 70 -37
26 -26 37 47 45 87 11 198 73 198 112 0 28 -190 139 -352 205 -54 22 -60 28
-104 104 -33 59 -73 107 -143 174 -53 51 -117 123 -142 160 l-45 67 -104 0
-104 0 -46 -68 c-25 -37 -89 -109 -142 -160 -69 -66 -109 -114 -142 -173 -44
-76 -50 -82 -104 -104 -162 -66 -352 -177 -352 -205 0 -39 111 -101 198 -112
76 -9 83 -18 42 -50 -19 -15 -55 -47 -80 -70 l-45 -42 -325 10 c-388 11 -476
19 -694 64 -389 80 -572 140 -766 250 -74 42 -200 108 -280 146 -80 39 -172
83 -205 99 -33 16 -127 65 -209 109 l-149 79 -43 122 c-29 84 -41 132 -37 154
3 17 -4 63 -15 101 -11 39 -25 96 -32 127 -12 59 -41 108 -66 108 -8 0 -14 -3
-14 -7z"/>
</g>
</svg>
